<svg xmlns="http://www.w3.org/2000/svg" width="1960.059" height="322.336" viewBox="0 0 1568.0471 257.86914"><path d="M485.5 61.369c.06-8.31 1.72-7.73 4.57-15l10.24-27c1.38-3.57 5.71-17.04 8.6-18.43 4.69-2.23 20.3 4.67 25.59 6.43 5.1 1.7 18.82 4.88 21.44 9.22l6.61 18.78c4.05 11.07 9.93 24.24 9.95 36l-1 23-1 55-1 15 9.09-1.94h12.91v6.94h8v9h7v-26l2-12h35v17h9v3h8v5c6.33-3.96 8.36.38 13 5 1.4-3.37 2.56-2.88 6-3v-4h14c.01-7.6-.79-10.69 8-11v-41h16v-5h45v4h8v25h5v44h5v-78l1.6-8.44 5.8-4.78.6-10.78c7.11-3.53 7.15-8.57 13.01-11.92 3.35-2.27 13.48-3.5 15.97 0 1.3 2.19 1.02 6.56 1.02 8.92 1.5.02 4.25-.09 5.57.57 3.11 1.56 3.39 11.19 3.43 14.43v81c2.78.1 5.15-.06 7.11 2.31 1.8 2.19 1.84 5.01 1.89 7.69v25h2v-23l1-17v-70h17c.42-1.82.5-3.49 2.43-4.23 1.95-1.14 5.47-.3 7.57 0h13l31 2.76 8 2.55c4.78 1.26 13.23.77 15.4 6.03.72 1.73.6 4.97.6 6.89v32h5l-3-4 6-5h8v-3h13v4l8.08 1.27 6.79-.99 15.13 2.72-1-39h6v-5l18-1 22-1.13 13-1.87v-5h21v5h7v37h26v3h16v15h17v7h8v20l8-5h3l5 7h4v-17c6.8-2.2 5.99-6.93 6-13h6v-11h12l1-46c.01-3.31.51-17.2 2.74-19.01 1.45-1.17 4.47-.97 6.26-.99v-8h16v9l6.98 1.6 1.02 6.4v72l1 17 1 24v-5h5l-1 9 2-4h3v-14h6v-8h24v8h4v6l2-1v13h3v-9h3v-114h4v-11h19v6c9.36 1.31 15.37 9.72 14.68 19l-.68 61 1 48h16c.05-5.02-.68-8.02 5-9v9h2v-9h5v9h16v-9c3.39-2.13 3.35-3.17 4-7l12-2v-4l12 2v4h4v-18c3.35-1.89 3.37-2.24 4-6l8.08 1.27 7.92-1.27 1 3c1.65-3.96 5.35-3.96 7 0l8-2v3h5v18h4c4.4 12.86 18.6 12.86 23 0 5.82 2.04 3.98 5.5 10.02 8.43 10.95 5.33 13.23-6.15 19.98-8.43 4.3 12.57 19.17 13.01 23 0 6.52 1.11 4.3 4.24 10.04 7.77 10.61 6.52 15.58-4.97 19.96-7.77 3.8 11.03 15.43 10 25 10v44c-.13 7.68-3.97 8.32-11 7.96-6.43-.34-7.76-3.12-11-3.12-3.77 0-4.75 3.6-14 3.12-6.5-.34-7.84-3.15-10.42-3.37-2.26-.2-4.55 1.86-7.58 2.76-7.18 2.15-12.36-.06-18-4.35-4.48 5.07-10.44 7.14-17 4.89-2.37-.81-5.83-3.05-8-3.05-2.48 0-4.52 1.98-8 2.77-6.96 1.57-11.65-.28-17-4.61-7.41 7.75-17.14 5.89-25 0-8.51 9.05-17.75 3.46-22 3.02-4.24-.44-6.28 2.9-13 2.9-6.36 0-8.91-3.08-12-3.17-3.73-.1-5.86 3.72-14 3.15-5.92-.41-8-3.03-11-3.17-3.82-.18-5.83 3.35-13 3.22-6.69-.13-8.83-3.14-12-3.12-3.82.03-4.76 3.61-14 3.13-6.94-.36-8.32-3.64-11.42-3.53-2.55.08-5.15 3-10.58 3.46-7.64.66-10.65-3.05-14-3.14-3.3-.09-5.06 2.72-11 3.15-8.04.59-10.31-3.25-14-3.15-3.35.09-6.12 3.73-14 3.15-5.19-.38-6.89-2.52-10-2.4l-9 2.81c-6.4 1.31-11.2-1.43-16-5.31-7.39 8.88-16.95 6.14-25 0-4.31 4.87-9.6 6.85-16 5.06-2.51-.7-5.7-2.62-8-2.55-2.44.06-5.13 2.04-8 2.85-7.39 2.11-12.5-.76-18-5.36-7.73 8.74-16.74 6.3-25 0-4.21 5.2-9.49 6.89-16 5.06-2.45-.69-6.03-2.78-8-2.81-2.46-.03-4.52 1.83-8 2.81-6.2 1.73-11.17-.25-16-4.06-4.38 4.95-10.66 6.29-17 4.35l-6.42-2.74c-2.02-.13-4.04 1.63-6.58 2.52-2.4.83-5.47.97-8 .83-7.01-.39-7.84-3.91-11.28-3.36l-6.72 2.83c-7.26 1.97-12.3-.09-18-4.43-4.48 5.07-10.44 7.14-17 4.89-2.37-.81-5.8-3.06-8-3-2.16.05-4.11 1.75-7 2.54-7.25 1.98-12.31-.09-18-4.43-7.41 7.75-17.14 5.89-25 0-8.51 9.62-19.2 2.8-23 2.7-3.76-.09-7.28 3.77-14 3.1-5.29-.53-7.75-3.42-11-3.27-2.43.11-4.64 2.05-8 2.91-7.08 1.83-11.87-.89-17-5.44-4.54 5.31-10.17 7.26-17 5.2-2.34-.7-5.55-2.84-7.42-2.77-3 .11-5.15 3.52-12.58 3.54-7.85.03-9.36-3.3-13-3.3-2.53 0-4.6 1.9-8 2.77-7.09 1.82-11.87-.89-17-5.44-7.33 9.08-17.11 7-25 0-4 4.95-8.64 6.76-15 5.67-3.44-.59-5.55-2.09-8-2.06-2.63.04-5.07 1.89-9 2.7-6.4 1.31-11.2-1.43-16-5.31-7.29 9.01-16.96 6.13-25 0-4.19 5.19-9.45 7.14-16 5.2-2.55-.75-5.56-2.78-8-2.67-2.42.11-4.64 2.05-8 2.91-7.33 1.9-12.48-.95-18-5.44-4.18 5.17-9.52 6.92-16 5.06-2.58-.74-5.81-2.84-8-2.81-3.19.04-7.27 4.11-14 3.41-5.41-.56-8.02-3.45-11-3.41-1.97.03-5.55 2.12-8 2.81-6.51 1.83-10.92-.04-16-4.06-4.52 4.51-10.78 6.22-17 4.35-2.31-.69-4.87-2.52-7-2.6-2.99-.1-4.96 2.4-10 3.06-8.98 1.18-11.17-2.93-15-3.06-3.69-.12-5.84 3.72-14 3.15-6.02-.42-7.97-3.11-11-3.02-3.01.1-7.34 4.29-14 3.57-6.09-.67-8.89-4.06-11.42-3.97-2.86.09-5.4 4-13.58 3.42-5.98-.41-7.95-3.07-11-3.07-3.4 0-6.04 3.63-14 3.07-5.98-.41-7.99-3.09-11-3.07-3.68.03-5.33 3.77-14 3.08-5.5-.44-6.83-2.62-9.42-2.49-2.75.13-6.9 4.05-13.58 3.38-5.33-.53-7.68-3.43-11-3.19l-8 2.86c-7.2 1.71-11.78-.84-17-5.47-4.18 5.18-9.43 7.03-16 5.47-3.56-.85-5.67-2.66-8-2.72-3.71-.1-5.1 3.25-13 3.22-7.51-.02-9.16-3.42-13-3.24-2.36.11-4.45 1.9-8 2.74-7.21 1.71-11.77-.83-17-5.47-7.33 9.08-17.11 7-25 0-4.15 5.14-9.47 7.07-16 5.45-2.24-.56-4.85-2.1-7-2.07-2.36.03-4.21 1.54-7 2.21-7.18 1.7-12.45-.1-18-4.59-6.96 7.87-17.52 6.06-25 0-8.07 8.59-16.51 6.47-25 0-7.33 9.08-17.11 7-25 0-7.26 7.73-17.34 6.2-25 0-7.11 8.04-17.31 5.86-25 0-8.35 9.43-19.08 2.98-23 3.18-4.12.2-3 2.78-15 2.82v-48h13v-12h11v11h5v-5h4v-3h4l2 10h4v-10h10v9h3v-6l10.97-1.95 11.03 1.95v8h6v10h2v-8l4 3 2-13h13l1 7v-6c7.52 7.39 1.15 14.8 6 24v-20h8v3h5v-3h9v4h4l2 16c1.11-1.19 1.74-1.53 2.41-3.18.83-2.08.59-7.38.59-9.82v-18c.01-5.92-.35-6.53 3.77-11.07 1.22-1.35 2.59-2.99 4.32-3.69 2.57-1.05 4.94.49 8.91-.94 7.46-2.69 5.4-6.26 19-6.3v-38h8v6h2v-5l15-2v4h5l2 15h4v4h3v62c4.21.01 7.39-.74 10 3l12-8v-4h6v6l9 2v-56h3.13v-14.83l2.87-12.17v-26h17v-3h7v11l8-5c3.69 3.31 3.99 4.09 9 4 4.09 6.36 4.21 5.83 11 8-2.89 11.09-1.98 16.79-2 28-.02 10.43-2 5.74-2 21 2.52-1.3 7.91-4.38 10.69-2.88 2.36 1.28 2.26 4.58 2.31 6.88v32h5v-70l6 2c0-4.17-.67-17.85 1.02-20.82 4.18-7.35 14.75-6 14.98-18.18v-20c5.07-2.7 5.84-6.92 8-12l9.81-23c.29-2.28.19-5.61 0-8h5.19l1.6 7.26 8.4 2.54 22 4.2v-5h4c.4 8.16 6.18 18.34 9.78 26 2.1 4.47 2.76 7.56 7.22 10l2 15v56.85h11.91l8.1-3.56h24.990000000000002c.57-5.18.99-6.43 6-7.29v-30l-1-16v-25l7 14c.95-7.19.95-5.55 1-13zm941 122l1 23h5l-3-23h-3zm28 0l.96 10v13h5.04l-3-23h-3zm28 0l1 23h5l-3-23h-3zm29 23h5c-.24-5.3-2.02-19.02-5-23v23zm28 0h5c-.42-5.13-2.43-19.05-5-23v23zm-676.27 3l-2.73 19c6.71-2.3 5.92-2.4 13-2 0-6.97.65-14.77-3-21l1 19h-2l-3-28-3.27 13zm-3.73 23c4.38.57 12.89 3.05 15-2l-15 2zm357 7.15c3.13-1.02 5.47-3.13 8-3.23 3.95-.16 7.17 4.33 13 3.46 4.63-.69 8.01-4.27 11-4.27s6.37 3.58 11 4.27c5.75.86 10.05-3.63 13-4.16 4.37-.79 8.5 5.2 15 4.16 4.95-.8 7.47-4.85 11-4.49 3.5.36 6.48 5.33 13 4.88 5.95-.41 8.77-4.55 12-4.63 3.27-.09 7.04 4.33 12 4.47 5.43.14 9.42-4.64 13-4.55 3.56.09 7.95 5.29 14 4.32 4.92-.79 7.43-4.8 11-4.51 3.38.28 6.7 5 13 4.49 5.43-.44 7.87-4.14 11-4.22 3.37-.09 6.33 4.17 12 3.61 5.09-.51 7.73-4.49 11-4.66 3.69-.19 7.23 4.71 13 4.7 5.73 0 8.56-4.58 12-4.65 3.16-.06 5.98 3.76 11 4.48 6.83.99 10.52-4.46 14-4.45 2.78 0 4.96 2.93 9 4.18 7.13 2.21 11.39-1.85 17-5.35 4.64 3.77 9.77 7.44 16 4.99 3.28-1.28 5.42-3.79 8-3.85 3.35-.07 6.41 4.3 12 4.58 6.27.32 9.64-4.51 13-4.58 3.17-.06 6 3.77 11 4.48 3.87.56 7.43-1.43 11-2.62 0 2.37.29 9.81-.57 11.58-1.82 3.73-9.95 3.81-13.43 3.03-3.49-.79-5.51-2.77-8-2.77s-4.51 1.98-8 2.77c-6.76 1.52-11.8-.47-17-4.61-6.83 7.72-17.74 6.25-25 0-6.83 7.72-17.74 6.25-25 0-6.83 7.72-17.74 6.25-25 0-7.41 7.75-17.14 5.89-25 0-4.37 4.57-9.8 5.96-16 4.61-2.72-.59-4.92-2.08-7-2.08-3.91 0-6.19 4.17-14 3.28-5.35-.61-7.51-3.43-11-3-2.64.33-6.16 3.48-13 3.08-5.78-.33-8.01-3.08-11-3.06-3.86.03-4.58 3.55-14 3.13-7.45-.34-8.41-3.62-11.42-3.4-3 .22-4.3 3.88-13.58 3.4-6.43-.34-7.76-3.12-11-3.12-3.82 0-4.56 3.55-14 3.12-6.76-.31-7.88-2.96-11-3.16-3.25-.2-6.02 3.15-13 3.12-6.55-.03-8.48-3.25-12-3.17-2.78.07-6.29 3.21-13 3.17-6.03-.03-7.61-2.73-11-2.56l-7 2.25c-7.27 1.6-12.37-.05-18-4.61-6.81 8.18-17.47 5.74-25 0-4.07 5.04-9.64 7-16 5.21-2.51-.7-5.64-2.59-8-2.59-3.05 0-7.3 3.25-13 3.2-5.93-.05-8.83-3.68-13-3.12l-8 2.62c-7.25 1.64-11.58-.8-17-5.32-6.51 7.82-16.93 6.08-24 0-4.55 4.76-10.59 6.02-17 4.61l-6.42-2.11c-2.35.03-4.22 2.21-7.58 3.07-6.56 1.69-11.88-.73-17-4.57-7.41 7.75-17.14 5.89-25 0-6.96 7.87-17.52 6.06-25 0-6.96 7.87-17.52 6.06-25 0-6.96 7.87-17.52 6.06-25 0-7.41 7.75-17.14 5.89-25 0-8.9 9.32-19.05 2.96-23 2.85-2.48-.06-6.15 1.85-9 2.47-6.84 1.48-11.03-.93-16-5.32-7.17 8.86-17.26 6.85-25 0-4.33 5.36-10.26 7.19-17 5.44l-7.42-2.94c-2.35-.12-4.44 1.99-8.58 2.97-7 1.66-11.5-.35-17-4.47-6.31 6.3-19.1 7.66-24-1-8.91 7.89-17.09 7.89-26 0-6.24 7.71-15.95 7.59-23 1-7.88 7.68-16.79 6.26-25 0-4.3 5.17-10.57 6.1-17 4.59-2.79-.66-4.56-2.14-7-2.08-2.94.07-6 2.8-11 3.29-6.72.67-10.33-3.18-14-3.18s-7.28 3.85-14 3.18c-4.97-.49-7.9-3.18-11-3.18-3.7 0-7.09 3.79-14 3.19-5.54-.48-8.15-3.15-11-3.28-2.41-.11-4.2 1.4-7 2.06-7.19 1.69-12.55.1-18-4.59-5.76 6.03-18.09 7.87-23 0h-2c-3.12 6.08-9.81 7.05-16 5.2-2.17-.65-4.94-2.37-7-2.37-3.4 0-6.04 3.63-14 3.07-5.98-.41-7.99-3.09-11-3.07-2.52.02-4.51 1.99-8 2.78-7.1 1.6-12.39-.41-18-4.61-4.41 4.99-10.6 6.21-17 4.43l-6.42-2.77c-3.04-.29-4.26 2.97-11.58 3.3-9.67.44-10.34-2.96-14-3.08-3.36-.1-5.98 3.59-14 3.02-5.98-.41-7.95-3.07-11-3.07-3.03 0-5.24 2.74-11 3.06-6.25.36-9.1-2.47-12-2.53-2.9-.07-5.13 2.22-9 3.11-6.52 1.49-11.32-1.33-16-5.47-7.17 8.86-17.26 6.85-25 0-7.11 8.87-16.74 7.19-25 1-7.73 7.71-16.87 5.81-25 0-4.65 4.87-12.7 6.75-19 3.69-2.34-1.14-4.12-2.95-6-4.69-6.38 7.89-17.62 7.89-24 0-4.46 4.49-9.6 6.68-16 5.53l-8-2.19c-2.74-.08-4.4 1.61-8 2.32-7.15 1.4-11.49-.2-17-4.66-6.96 7.87-17.52 6.06-25 0-6.98 8.62-17.44 6.68-25 0-7 8.64-17.38 6.56-25 0-6.98 8.62-17.44 6.68-25 0-7.08 8-17.3 5.77-25 0-4.35 4.91-9.63 5.98-16 4.61-2.72-.59-4.73-2.01-7-1.88-4.42.26-2.8 3.23-15 3.27v-12c9.58-.47 11.2-3.94 15-4.23 3.37-.26 5.66 2.46 10 3 5.73.73 9.56-2.84 14-5.77 11.32 8.66 13.79 6.98 25 0 8.25 6.9 15.09 8.72 23 0 4.91 2.2 9.25 6.65 15 6.17 5.2-.43 8.23-4.56 12-4.38 2.77.14 6.05 3.05 10 3.81 5.85 1.12 10.37-2.71 15-5.6 10.74 8.98 14.24 6.7 25 0 4.41 3.68 8.9 7.1 15 5.35l8-3.38c4.18-.55 7.6 4.03 14 3.17 4.82-.64 7.11-3.92 10-4.26 3.34-.39 6.4 3.29 11 4.24 5.71 1.18 10.58-3.2 15-6.12 4.42 3.95 8.69 7.47 15 5.74 4.48-1.23 6.7-4.15 10-3.72 3.17.42 7.2 5.1 13 4.68 5.09-.38 8.41-4.73 12-4.64 3.25.08 6.98 4.29 12 4.29 6.04 0 9.28-5.52 14-4.29 2.33.61 5.71 3.76 10 4.11 6.94.58 10.12-5.38 15-4.11 2.56.67 6.16 4.23 11 4.15 5.35-.09 8.32-4.14 12-4.01 3.22.11 6.83 3.94 12 3.37 4.8-.53 7.75-4.43 11-4.45 3.22-.03 7.61 4.64 13 4.49 4.93-.14 8.7-4.52 12-4.49 3.46.02 6.61 4.47 12 4.51 5.61.04 9.5-4.72 13-4.54 3.28.17 5.66 4 11 4.68 7.2.92 10.18-4.53 14-4.63 3.01-.08 6.55 3.72 11 4.43 6.23 1 9.92-4.63 14-4.5 3.25.1 6.22 3.97 11 4.5 6.12.68 10.24-4.63 14-4.5 3.03.09 5.79 3.44 10 4.34 5.44 1.15 10.5-2.9 15-5.41 4.61 3.73 8.89 6.39 15 4.11 3.48-1.3 5.4-3.9 8-3.93 3.67-.05 6.79 5.52 14 4.59 5.4-.69 7.78-4.6 11-4.6 2.78 0 4.99 2.95 9 4.18 6.66 2.04 10.86-1.96 16-5.35 3.83 3.23 8.6 7.22 14 6.38 4.46-.7 7.77-4.32 11-4.46 4.16-.18 8.11 5.16 14.16 4 5.16-.99 7.77-4.75 10.84-4.75 2.78 0 4.99 2.95 9 4.18 6.66 2.04 10.86-1.96 16-5.35 4.73 3.95 9.5 7.31 16 5.35 3.22-.97 5.42-3.19 8-3.3 3.49-.15 7.2 4.04 13 2.99 5.2-.94 7.7-5.1 12-3.98 2.07.54 5.36 3.31 9 4.06 5.71 1.18 10.58-3.2 15-6.12 4.83 4.32 9.22 7.79 16 5.43 3.26-1.14 5.56-3.31 8-3.37 3.59-.09 7.34 4.58 13 4.57 5.59 0 8.84-4.38 12-4.75 3.74-.44 7.49 4.47 13 4.47 5.01 0 8.98-4.26 12-4.48 3.64-.28 5.67 3.56 11 4.27 6.62.89 10.72-4.03 14-4.27 4.18-.32 6.81 5.2 14 4.28 5.06-.66 7.69-4.17 11-4.09 2.8.07 5.11 2.75 9 3.53 5.8 1.17 10.41-2.73 15-5.59l5 3.53c9.4 5.47 12.66-.34 21-3.53 3.96 4.23 9.11 7.31 15 4.99 3.29-1.29 5.45-3.82 8-3.82 2.77 0 4.96 2.93 9 4.18 7.17 2.22 11.45-1.69 17-5.35 4.35 3.33 9.18 7.08 15 5.35 3.86-1.15 6.17-4.11 9-4.26 3.69-.19 7.23 4.71 13 4.7 5.73 0 8.56-4.58 12-4.65 3.54-.07 6.81 4.84 13 4.58 5.47-.22 8.32-4.11 12-3.93 3.23.16 6.24 3.72 12 2.98 5.4-.69 7.78-4.6 11-4.6 3.72 0 6.79 5.52 14 4.6 5.4-.69 7.78-4.6 11-4.6 2.78 0 4.99 2.95 9 4.18 6.66 2.04 10.86-1.96 16-5.35 3.79 3.38 8.53 7.23 14 6.38 4.46-.7 7.77-4.32 11-4.46 3.47-.15 6.09 3.23 11 3.85 7.24.92 10.33-4.64 14-4.59 2.6.03 4.52 2.63 8 3.93 7.05 2.63 11.52-1.49 17-5.11 4.86 4.07 9.37 7.31 16 5.15z" stroke="#000" fill="none"/></svg>