<?xml version="1.0" encoding="UTF-8" standalone="no"?>
<svg
   xmlns:dc="http://purl.org/dc/elements/1.1/"
   xmlns:cc="http://creativecommons.org/ns#"
   xmlns:rdf="http://www.w3.org/1999/02/22-rdf-syntax-ns#"
   xmlns:svg="http://www.w3.org/2000/svg"
   xmlns="http://www.w3.org/2000/svg"
   xmlns:sodipodi="http://sodipodi.sourceforge.net/DTD/sodipodi-0.dtd"
   xmlns:inkscape="http://www.inkscape.org/namespaces/inkscape"
   width="1960.0588"
   height="322.33643"
   viewBox="0 0 1568.0471 257.86914"
   id="svg3045"
   version="1.1"
   inkscape:version="0.48.2 r9819"
   sodipodi:docname="sandiegoskyline.svg">
  <metadata
     id="metadata3052">
    <rdf:RDF>
      <cc:Work
         rdf:about="">
        <dc:format>image/svg+xml</dc:format>
        <dc:type
           rdf:resource="http://purl.org/dc/dcmitype/StillImage" />
      </cc:Work>
    </rdf:RDF>
  </metadata>
  <defs
     id="defs3050" />
  <sodipodi:namedview
     pagecolor="#ffffff"
     bordercolor="#666666"
     borderopacity="1"
     objecttolerance="10"
     gridtolerance="10"
     guidetolerance="10"
     inkscape:pageopacity="0"
     inkscape:pageshadow="2"
     inkscape:window-width="735"
     inkscape:window-height="843"
     id="namedview3048"
     showgrid="false"
     fit-margin-top="0"
     fit-margin-left="0"
     fit-margin-right="0"
     fit-margin-bottom="0"
     inkscape:zoom="0.27789855"
     inkscape:cx="961.875"
     inkscape:cy="129.375"
     inkscape:window-x="705"
     inkscape:window-y="0"
     inkscape:window-maximized="0"
     inkscape:current-layer="svg3045" />
  <path
     id="Selection"
     d="m 485.5,61.369142 c 0.06,-8.31 1.72,-7.73 4.57,-15 0,0 10.24,-27 10.24,-27 1.38,-3.57 5.71,-17.0400002 8.6,-18.4300002 4.69,-2.23 20.3,4.67 25.59,6.43 5.1,1.7 18.82,4.8800002 21.44,9.2200002 0,0 6.61,18.78 6.61,18.78 4.05,11.07 9.93,24.24 9.95,36 0,0 -1,23 -1,23 0,0 -1,54.999998 -1,54.999998 0,0 -1,15 -1,15 0,0 9.09,-1.94 9.09,-1.94 0,0 12.91,0 12.91,0 0,0 0,6.94 0,6.94 0,0 8,0 8,0 0,0 0,9 0,9 0,0 7,0 7,0 0,0 0,-26 0,-26 0,0 2,-12 2,-12 0,0 35,0 35,0 0,0 0,17 0,17 0,0 9,0 9,0 0,0 0,3 0,3 0,0 8,0 8,0 0,0 0,5 0,5 6.33,-3.96 8.36,0.38 13,5 1.4,-3.37 2.56,-2.88 6,-3 0,0 0,-4 0,-4 0,0 14,0 14,0 0.01,-7.6 -0.79,-10.69 8,-11 0,0 0,-41 0,-41 0,0 16,0 16,0 0,0 0,-5 0,-5 0,0 45,0 45,0 0,0 0,4 0,4 0,0 8,0 8,0 0,0 0,25 0,25 0,0 5,0 5,0 0,0 0,44 0,44 0,0 5,0 5,0 0,0 0,-78 0,-78 0,0 1.6,-8.439998 1.6,-8.439998 0,0 5.8,-4.78 5.8,-4.78 0,0 0.6,-10.78 0.6,-10.78 7.11,-3.53 7.15,-8.57 13.01,-11.92 3.35,-2.27 13.48,-3.5 15.97,0 1.3,2.19 1.02,6.56 1.02,8.92 1.5,0.02 4.25,-0.09 5.57,0.57 3.11,1.56 3.39,11.19 3.43,14.43 0,0 0,80.999998 0,80.999998 2.78,0.1 5.15,-0.06 7.11,2.31 1.8,2.19 1.84,5.01 1.89,7.69 0,0 0,25 0,25 0,0 2,0 2,0 0,0 0,-23 0,-23 0,0 1,-17 1,-17 0,0 0,-69.999998 0,-69.999998 0,0 17,0 17,0 0.42,-1.82 0.5,-3.49 2.43,-4.23 1.95,-1.14 5.47,-0.3 7.57,0 0,0 13,0 13,0 0,0 31,2.76 31,2.76 0,0 8,2.55 8,2.55 4.78,1.26 13.23,0.77 15.4,6.029998 0.72,1.73 0.6,4.97 0.6,6.89 0,0 0,32 0,32 0,0 5,0 5,0 0,0 -3,-4 -3,-4 0,0 6,-5 6,-5 0,0 8,0 8,0 0,0 0,-3 0,-3 0,0 13,0 13,0 0,0 0,4 0,4 0,0 8.08,1.27 8.08,1.27 0,0 6.79,-0.99 6.79,-0.99 0,0 15.13,2.72 15.13,2.72 0,0 -1,-38.999998 -1,-38.999998 0,0 6,0 6,0 0,0 0,-5 0,-5 0,0 18,-1 18,-1 0,0 22,-1.13 22,-1.13 0,0 13,-1.87 13,-1.87 0,0 0,-5 0,-5 0,0 21,0 21,0 0,0 0,5 0,5 0,0 7,0 7,0 0,0 0,36.999998 0,36.999998 0,0 26,0 26,0 0,0 0,3 0,3 0,0 16,0 16,0 0,0 0,15 0,15 0,0 17,0 17,0 0,0 0,7 0,7 0,0 8,0 8,0 0,0 0,20 0,20 0,0 8,-5 8,-5 0,0 3,0 3,0 0,0 5,7 5,7 0,0 4,0 4,0 0,0 0,-17 0,-17 6.8,-2.2 5.99,-6.93 6,-13 0,0 6,0 6,0 0,0 0,-11 0,-11 0,0 12,0 12,0 0,0 1,-45.999998 1,-45.999998 0.01,-3.31 0.51,-17.2 2.74,-19.01 1.45,-1.17 4.47,-0.97 6.26,-0.99 0,0 0,-8 0,-8 0,0 16,0 16,0 0,0 0,9 0,9 0,0 6.98,1.6 6.98,1.6 0,0 1.02,6.4 1.02,6.4 0,0 0,21 0,21 0,0 0,50.999998 0,50.999998 0,0 1,17 1,17 0,0 1,24 1,24 0,0 0,-5 0,-5 0,0 5,0 5,0 0,0 -1,9 -1,9 0,0 2,-4 2,-4 0,0 3,0 3,0 0,0 0,-14 0,-14 0,0 6,0 6,0 0,0 0,-8 0,-8 0,0 24,0 24,0 0,0 0,8 0,8 0,0 4,0 4,0 0,0 0,6 0,6 0,0 2,-1 2,-1 0,0 0,13 0,13 0,0 3,0 3,0 0,0 0,-9 0,-9 0,0 3,0 3,0 0,0 0,-113.999998 0,-113.999998 0,0 4,0 4,0 0,0 0,-11 0,-11 0,0 19,0 19,0 0,0 0,6 0,6 9.36,1.31 15.37,9.72 14.68,19 0,0 -0.68,60.999998 -0.68,60.999998 0,0 1,48 1,48 0,0 16,0 16,0 0.05,-5.02 -0.68,-8.02 5,-9 0,0 0,9 0,9 0,0 2,0 2,0 0,0 0,-9 0,-9 0,0 5,0 5,0 0,0 0,9 0,9 0,0 16,0 16,0 0,0 0,-9 0,-9 3.39,-2.13 3.35,-3.17 4,-7 0,0 12,-2 12,-2 0,0 0,-4 0,-4 0,0 12,2 12,2 0,0 0,4 0,4 0,0 4,0 4,0 0,0 0,-18 0,-18 3.35,-1.89 3.37,-2.24 4,-6 0,0 8.08,1.27 8.08,1.27 0,0 7.92,-1.27 7.92,-1.27 0,0 1,3 1,3 1.65,-3.96 5.35,-3.96 7,0 0,0 8,-2 8,-2 0,0 0,3 0,3 0,0 5,0 5,0 0,0 0,18 0,18 0,0 4,0 4,0 4.4,12.86 18.6,12.86 23,0 5.82,2.04 3.98,5.5 10.02,8.43 10.95,5.33 13.23,-6.15 19.98,-8.43 4.3,12.57 19.17,13.01 23,0 6.52,1.11 4.3,4.24 10.04,7.77 10.61,6.52 15.58,-4.97 19.96,-7.77 3.8,11.03 15.43,10 25,10 0,0 0,44 0,44 -0.13,7.68 -3.97,8.32 -11,7.96 -6.43,-0.34 -7.76,-3.12 -11,-3.12 -3.77,0 -4.75,3.6 -14,3.12 -6.5,-0.34 -7.84,-3.15 -10.42,-3.37 -2.26,-0.2 -4.55,1.86 -7.58,2.76 -7.18,2.15 -12.36,-0.06 -18,-4.35 -4.48,5.07 -10.44,7.14 -17,4.89 -2.37,-0.81 -5.83,-3.05 -8,-3.05 -2.48,0 -4.52,1.98 -8,2.77 -6.96,1.57 -11.65,-0.28 -17,-4.61 -7.41,7.75 -17.14,5.89 -25,0 -8.51,9.05 -17.75,3.46 -22,3.02 -4.24,-0.44 -6.28,2.9 -13,2.9 -6.36,0 -8.91,-3.08 -12,-3.17 -3.73,-0.1 -5.86,3.72 -14,3.15 -5.92,-0.41 -8,-3.03 -11,-3.17 -3.82,-0.18 -5.83,3.35 -13,3.22 -6.69,-0.13 -8.83,-3.14 -12,-3.12 -3.82,0.03 -4.76,3.61 -14,3.13 -6.94,-0.36 -8.32,-3.64 -11.42,-3.53 -2.55,0.08 -5.15,3 -10.58,3.46 -7.64,0.66 -10.65,-3.05 -14,-3.14 -3.3,-0.09 -5.06,2.72 -11,3.15 -8.04,0.59 -10.31,-3.25 -14,-3.15 -3.35,0.09 -6.12,3.73 -14,3.15 -5.19,-0.38 -6.89,-2.52 -10,-2.4 0,0 -9,2.81 -9,2.81 -6.4,1.31 -11.2,-1.43 -16,-5.31 -7.39,8.88 -16.95,6.14 -25,0 -4.31,4.87 -9.6,6.85 -16,5.06 -2.51,-0.7 -5.7,-2.62 -8,-2.55 -2.44,0.06 -5.13,2.04 -8,2.85 -7.39,2.11 -12.5,-0.76 -18,-5.36 -7.73,8.74 -16.74,6.3 -25,0 -4.21,5.2 -9.49,6.89 -16,5.06 -2.45,-0.69 -6.03,-2.78 -8,-2.81 -2.46,-0.03 -4.52,1.83 -8,2.81 -6.2,1.73 -11.17,-0.25 -16,-4.06 -4.38,4.95 -10.66,6.29 -17,4.35 0,0 -6.42,-2.74 -6.42,-2.74 -2.02,-0.13 -4.04,1.63 -6.58,2.52 -2.4,0.83 -5.47,0.97 -8,0.83 -7.01,-0.39 -7.84,-3.91 -11.28,-3.36 0,0 -6.72,2.83 -6.72,2.83 -7.26,1.97 -12.3,-0.09 -18,-4.43 -4.48,5.07 -10.44,7.14 -17,4.89 -2.37,-0.81 -5.8,-3.06 -8,-3 -2.16,0.05 -4.11,1.75 -7,2.54 -7.25,1.98 -12.31,-0.09 -18,-4.43 -7.41,7.75 -17.14,5.89 -25,0 -8.51,9.62 -19.2,2.8 -23,2.7 -3.76,-0.09 -7.28,3.77 -14,3.1 -5.29,-0.53 -7.75,-3.42 -11,-3.27 -2.43,0.11 -4.64,2.05 -8,2.91 -7.08,1.83 -11.87,-0.89 -17,-5.44 -4.54,5.31 -10.17,7.26 -17,5.2 -2.34,-0.7 -5.55,-2.84 -7.42,-2.77 -3,0.11 -5.15,3.52 -12.58,3.54 -7.85,0.03 -9.36,-3.3 -13,-3.3 -2.53,0 -4.6,1.9 -8,2.77 -7.09,1.82 -11.87,-0.89 -17,-5.44 -7.33,9.08 -17.11,7 -25,0 -4,4.95 -8.64,6.76 -15,5.67 -3.44,-0.59 -5.55,-2.09 -8,-2.06 -2.63,0.04 -5.07,1.89 -9,2.7 -6.4,1.31 -11.2,-1.43 -16,-5.31 -7.29,9.01 -16.96,6.13 -25,0 -4.19,5.19 -9.45,7.14 -16,5.2 -2.55,-0.75 -5.56,-2.78 -8,-2.67 -2.42,0.11 -4.64,2.05 -8,2.91 -7.33,1.9 -12.48,-0.95 -18,-5.44 -4.18,5.17 -9.52,6.92 -16,5.06 -2.58,-0.74 -5.81,-2.84 -8,-2.81 -3.19,0.04 -7.27,4.11 -14,3.41 -5.41,-0.56 -8.02,-3.45 -11,-3.41 -1.97,0.03 -5.55,2.12 -8,2.81 -6.51,1.83 -10.92,-0.04 -16,-4.06 -4.52,4.51 -10.78,6.22 -17,4.35 -2.31,-0.69 -4.87,-2.52 -7,-2.6 -2.99,-0.1 -4.96,2.4 -10,3.06 -8.98,1.18 -11.17,-2.93 -15,-3.06 -3.69,-0.12 -5.84,3.72 -14,3.15 -6.02,-0.42 -7.97,-3.11 -11,-3.02 -3.01,0.1 -7.34,4.29 -14,3.57 -6.09,-0.67 -8.89,-4.06 -11.42,-3.97 -2.86,0.09 -5.4,4 -13.58,3.42 -5.98,-0.41 -7.95,-3.07 -11,-3.07 -3.4,0 -6.04,3.63 -14,3.07 -5.98,-0.41 -7.99,-3.09 -11,-3.07 -3.68,0.03 -5.33,3.77 -14,3.08 -5.5,-0.44 -6.83,-2.62 -9.42,-2.49 -2.75,0.13 -6.9,4.05 -13.58,3.38 -5.33,-0.53 -7.68,-3.43 -11,-3.19 0,0 -8,2.86 -8,2.86 -7.2,1.71 -11.78,-0.84 -17,-5.47 -4.18,5.18 -9.43,7.03 -16,5.47 -3.56,-0.85 -5.67,-2.66 -8,-2.72 -3.71,-0.1 -5.1,3.25 -13,3.22 -7.51,-0.02 -9.16,-3.42 -13,-3.24 -2.36,0.11 -4.45,1.9 -8,2.74 -7.21,1.71 -11.77,-0.83 -17,-5.47 -7.33,9.08 -17.11,7 -25,0 -4.15,5.14 -9.47,7.07 -16,5.45 -2.24,-0.56 -4.85,-2.1 -7,-2.07 -2.36,0.03 -4.21,1.54 -7,2.21 -7.18,1.7 -12.45,-0.1 -18,-4.59 -6.96,7.87 -17.52,6.06 -25,0 -8.07,8.59 -16.51,6.47 -25,0 -7.33,9.08 -17.11,7 -25,0 -7.26,7.73 -17.34,6.2 -25,0 -7.11,8.04 -17.31,5.86 -25,0 -8.35,9.43 -19.08,2.98 -23,3.18 -4.12,0.2 -3,2.78 -15,2.82 0,0 0,-48 0,-48 0,0 13,0 13,0 0,0 0,-12 0,-12 0,0 11,0 11,0 0,0 0,11 0,11 0,0 5,0 5,0 0,0 0,-5 0,-5 0,0 4,0 4,0 0,0 0,-3 0,-3 0,0 4,0 4,0 0,0 2,10 2,10 0,0 4,0 4,0 0,0 0,-10 0,-10 0,0 10,0 10,0 0,0 0,9 0,9 0,0 3,0 3,0 0,0 0,-6 0,-6 0,0 10.97,-1.95 10.97,-1.95 0,0 11.03,1.95 11.03,1.95 0,0 0,8 0,8 0,0 6,0 6,0 0,0 0,10 0,10 0,0 2,0 2,0 0,0 0,-8 0,-8 0,0 4,3 4,3 0,0 2,-13 2,-13 0,0 13,0 13,0 0,0 1,7 1,7 0,0 0,-6 0,-6 7.52,7.39 1.15,14.8 6,24 0,0 0,-20 0,-20 0,0 8,0 8,0 0,0 0,3 0,3 0,0 5,0 5,0 0,0 0,-3 0,-3 0,0 9,0 9,0 0,0 0,4 0,4 0,0 4,0 4,0 0,0 2,16 2,16 1.11,-1.19 1.74,-1.53 2.41,-3.18 0.83,-2.08 0.59,-7.38 0.59,-9.82 0,0 0,-18 0,-18 0.01,-5.92 -0.35,-6.53 3.77,-11.07 1.22,-1.35 2.59,-2.99 4.32,-3.69 2.57,-1.05 4.94,0.49 8.91,-0.94 7.46,-2.69 5.4,-6.26 19,-6.3 0,0 0,-38 0,-38 0,0 8,0 8,0 0,0 0,6 0,6 0,0 2,0 2,0 0,0 0,-5 0,-5 0,0 15,-2 15,-2 0,0 0,4 0,4 0,0 5,0 5,0 0,0 2,15 2,15 0,0 4,0 4,0 0,0 0,4 0,4 0,0 3,0 3,0 0,0 0,62 0,62 4.21,0.01 7.39,-0.74 10,3 0,0 12,-8 12,-8 0,0 0,-4 0,-4 0,0 6,0 6,0 0,0 0,6 0,6 0,0 9,2 9,2 0,0 0,-56 0,-56 0,0 3.13,0 3.13,0 0,0 0,-14.83 0,-14.83 0,0 2.87,-12.17 2.87,-12.17 0,0 0,-25.999998 0,-25.999998 0,0 17,0 17,0 0,0 0,-3 0,-3 0,0 7,0 7,0 0,0 0,10.999998 0,10.999998 0,0 8,-4.999998 8,-4.999998 3.69,3.309998 3.99,4.089998 9,3.999998 4.09,6.36 4.21,5.83 11,8 -2.89,11.09 -1.98,16.79 -2,28 -0.02,10.43 -2,5.74 -2,21 2.52,-1.3 7.91,-4.38 10.69,-2.88 2.36,1.28 2.26,4.58 2.31,6.88 0,0 0,32 0,32 0,0 5,0 5,0 0,0 0,-70 0,-70 0,0 6,2 6,2 0,-4.17 -0.67,-17.85 1.02,-20.82 4.18,-7.349998 14.75,-6 14.98,-18.179998 0,0 0,-20 0,-20 5.07,-2.7 5.84,-6.92 8,-12 0,0 9.81,-23 9.81,-23 0.29,-2.28 0.19,-5.61 0,-8 0,0 5.19,0 5.19,0 0,0 1.6,7.26 1.6,7.26 0,0 8.4,2.54 8.4,2.54 0,0 22,4.2 22,4.2 0,0 0,-5 0,-5 0,0 4,0 4,0 0.4,8.16 6.18,18.34 9.78,26 2.1,4.47 2.76,7.56 7.22,10 0,0 2,15 2,15 0,0 0,56.849998 0,56.849998 0,0 11.91,0 11.91,0 0,0 8.1,-3.56 8.1,-3.56 0,0 5.99,0 5.99,0 0,0 19,0 19,0 0.57,-5.18 0.99,-6.43 6,-7.29 0,0 0,-30 0,-30 0,0 -1,-15.999998 -1,-15.999998 0,0 0,-25 0,-25 0,0 7,14 7,14 0.95,-7.19 0.95,-5.55 1,-13 z m 941,121.999998 c 0,0 1,23 1,23 0,0 5,0 5,0 0,0 -3,-23 -3,-23 0,0 -3,0 -3,0 z m 28,0 c 0,0 0.96,10 0.96,10 0,0 0,13 0,13 0,0 5.04,0 5.04,0 0,0 -3,-23 -3,-23 0,0 -3,0 -3,0 z m 28,0 c 0,0 1,23 1,23 0,0 5,0 5,0 0,0 -3,-23 -3,-23 0,0 -3,0 -3,0 z m 29,23 c 0,0 5,0 5,0 -0.24,-5.3 -2.02,-19.02 -5,-23 0,0 0,23 0,23 z m 28,0 c 0,0 5,0 5,0 -0.42,-5.13 -2.43,-19.05 -5,-23 0,0 0,23 0,23 z m -676.27,3 c 0,0 -2.73,19 -2.73,19 6.71,-2.3 5.92,-2.4 13,-2 0,-6.97 0.65,-14.77 -3,-21 0,0 1,19 1,19 0,0 -2,0 -2,0 0,0 -3,-28 -3,-28 0,0 -3.27,13 -3.27,13 z m -3.73,23 c 4.38,0.57 12.89,3.05 15,-2 0,0 -15,2 -15,2 z m 357,7.15 c 3.13,-1.02 5.47,-3.13 8,-3.23 3.95,-0.16 7.17,4.33 13,3.46 4.63,-0.69 8.01,-4.27 11,-4.27 2.99,0 6.37,3.58 11,4.27 5.75,0.86 10.05,-3.63 13,-4.16 4.37,-0.79 8.5,5.2 15,4.16 4.95,-0.8 7.47,-4.85 11,-4.49 3.5,0.36 6.48,5.33 13,4.88 5.95,-0.41 8.77,-4.55 12,-4.63 3.27,-0.09 7.04,4.33 12,4.47 5.43,0.14 9.42,-4.64 13,-4.55 3.56,0.09 7.95,5.29 14,4.32 4.92,-0.79 7.43,-4.8 11,-4.51 3.38,0.28 6.7,5 13,4.49 5.43,-0.44 7.87,-4.14 11,-4.22 3.37,-0.09 6.33,4.17 12,3.61 5.09,-0.51 7.73,-4.49 11,-4.66 3.69,-0.19 7.23,4.71 13,4.7 5.73,0 8.56,-4.58 12,-4.65 3.16,-0.06 5.98,3.76 11,4.48 6.83,0.99 10.52,-4.46 14,-4.45 2.78,0 4.96,2.93 9,4.18 7.13,2.21 11.39,-1.85 17,-5.35 4.64,3.77 9.77,7.44 16,4.99 3.28,-1.28 5.42,-3.79 8,-3.85 3.35,-0.07 6.41,4.3 12,4.58 6.27,0.32 9.64,-4.51 13,-4.58 3.17,-0.06 6,3.77 11,4.48 3.87,0.56 7.43,-1.43 11,-2.62 0,2.37 0.29,9.81 -0.57,11.58 -1.82,3.73 -9.95,3.81 -13.43,3.03 -3.49,-0.79 -5.51,-2.77 -8,-2.77 -2.49,0 -4.51,1.98 -8,2.77 -6.76,1.52 -11.8,-0.47 -17,-4.61 -6.83,7.72 -17.74,6.25 -25,0 -6.83,7.72 -17.74,6.25 -25,0 -6.83,7.72 -17.74,6.25 -25,0 -7.41,7.75 -17.14,5.89 -25,0 -4.37,4.57 -9.8,5.96 -16,4.61 -2.72,-0.59 -4.92,-2.08 -7,-2.08 -3.91,0 -6.19,4.17 -14,3.28 -5.35,-0.61 -7.51,-3.43 -11,-3 -2.64,0.33 -6.16,3.48 -13,3.08 -5.78,-0.33 -8.01,-3.08 -11,-3.06 -3.86,0.03 -4.58,3.55 -14,3.13 -7.45,-0.34 -8.41,-3.62 -11.42,-3.4 -3,0.22 -4.3,3.88 -13.58,3.4 -6.43,-0.34 -7.76,-3.12 -11,-3.12 -3.82,0 -4.56,3.55 -14,3.12 -6.76,-0.31 -7.88,-2.96 -11,-3.16 -3.25,-0.2 -6.02,3.15 -13,3.12 -6.55,-0.03 -8.48,-3.25 -12,-3.17 -2.78,0.07 -6.29,3.21 -13,3.17 -6.03,-0.03 -7.61,-2.73 -11,-2.56 0,0 -7,2.25 -7,2.25 -7.27,1.6 -12.37,-0.05 -18,-4.61 -6.81,8.18 -17.47,5.74 -25,0 -4.07,5.04 -9.64,7 -16,5.21 -2.51,-0.7 -5.64,-2.59 -8,-2.59 -3.05,0 -7.3,3.25 -13,3.2 -5.93,-0.05 -8.83,-3.68 -13,-3.12 0,0 -8,2.62 -8,2.62 -7.25,1.64 -11.58,-0.8 -17,-5.32 -6.51,7.82 -16.93,6.08 -24,0 -4.55,4.76 -10.59,6.02 -17,4.61 0,0 -6.42,-2.11 -6.42,-2.11 -2.35,0.03 -4.22,2.21 -7.58,3.07 -6.56,1.69 -11.88,-0.73 -17,-4.57 -7.41,7.75 -17.14,5.89 -25,0 -6.96,7.87 -17.52,6.06 -25,0 -6.96,7.87 -17.52,6.06 -25,0 -6.96,7.87 -17.52,6.06 -25,0 -7.41,7.75 -17.14,5.89 -25,0 -8.9,9.32 -19.05,2.96 -23,2.85 -2.48,-0.06 -6.15,1.85 -9,2.47 -6.84,1.48 -11.03,-0.93 -16,-5.32 -7.17,8.86 -17.26,6.85 -25,0 -4.33,5.36 -10.26,7.19 -17,5.44 0,0 -7.42,-2.94 -7.42,-2.94 -2.35,-0.12 -4.44,1.99 -8.58,2.97 -7,1.66 -11.5,-0.35 -17,-4.47 -6.31,6.3 -19.1,7.66 -24,-1 -8.91,7.89 -17.09,7.89 -26,0 -6.24,7.71 -15.95,7.59 -23,1 -7.88,7.68 -16.79,6.26 -25,0 -4.3,5.17 -10.57,6.1 -17,4.59 -2.79,-0.66 -4.56,-2.14 -7,-2.08 -2.94,0.07 -6,2.8 -11,3.29 -6.72,0.67 -10.33,-3.18 -14,-3.18 -3.67,0 -7.28,3.85 -14,3.18 -4.97,-0.49 -7.9,-3.18 -11,-3.18 -3.7,0 -7.09,3.79 -14,3.19 -5.54,-0.48 -8.15,-3.15 -11,-3.28 -2.41,-0.11 -4.2,1.4 -7,2.06 -7.19,1.69 -12.55,0.1 -18,-4.59 -5.76,6.03 -18.09,7.87 -23,0 0,0 -2,0 -2,0 -3.12,6.08 -9.81,7.05 -16,5.2 -2.17,-0.65 -4.94,-2.37 -7,-2.37 -3.4,0 -6.04,3.63 -14,3.07 -5.98,-0.41 -7.99,-3.09 -11,-3.07 -2.52,0.02 -4.51,1.99 -8,2.78 -7.1,1.6 -12.39,-0.41 -18,-4.61 -4.41,4.99 -10.6,6.21 -17,4.43 0,0 -6.42,-2.77 -6.42,-2.77 -3.04,-0.29 -4.26,2.97 -11.58,3.3 -9.67,0.44 -10.34,-2.96 -14,-3.08 -3.36,-0.1 -5.98,3.59 -14,3.02 -5.98,-0.41 -7.95,-3.07 -11,-3.07 -3.03,0 -5.24,2.74 -11,3.06 -6.25,0.36 -9.1,-2.47 -12,-2.53 -2.9,-0.07 -5.13,2.22 -9,3.11 -6.52,1.49 -11.32,-1.33 -16,-5.47 -7.17,8.86 -17.26,6.85 -25,0 -7.11,8.87 -16.74,7.19 -25,1 -7.73,7.71 -16.87,5.81 -25,0 -4.65,4.87 -12.7,6.75 -19,3.69 -2.34,-1.14 -4.12,-2.95 -6,-4.69 -6.38,7.89 -17.62,7.89 -24,0 -4.46,4.49 -9.6,6.68 -16,5.53 0,0 -8,-2.19 -8,-2.19 -2.74,-0.08 -4.4,1.61 -8,2.32 -7.15,1.4 -11.49,-0.2 -17,-4.66 -6.96,7.87 -17.52,6.06 -25,0 -6.98,8.62 -17.44,6.68 -25,0 -7,8.64 -17.38,6.56 -25,0 -6.98,8.62 -17.44,6.68 -25,0 -7.08,8 -17.3,5.77 -25,0 -4.35,4.91 -9.63,5.98 -16,4.61 -2.72,-0.59 -4.73,-2.01 -7,-1.88 -4.42,0.26 -2.8,3.23 -15,3.27 0,0 0,-12 0,-12 9.58,-0.47 11.2,-3.94 15,-4.23 3.37,-0.26 5.66,2.46 10,3 5.73,0.73 9.56,-2.84 14,-5.77 11.32,8.66 13.79,6.98 25,0 8.25,6.9 15.09,8.72 23,0 4.91,2.2 9.25,6.65 15,6.17 5.2,-0.43 8.23,-4.56 12,-4.38 2.77,0.14 6.05,3.05 10,3.81 5.85,1.12 10.37,-2.71 15,-5.6 10.74,8.98 14.24,6.7 25,0 4.41,3.68 8.9,7.1 15,5.35 0,0 8,-3.38 8,-3.38 4.18,-0.55 7.6,4.03 14,3.17 4.82,-0.64 7.11,-3.92 10,-4.26 3.34,-0.39 6.4,3.29 11,4.24 5.71,1.18 10.58,-3.2 15,-6.12 4.42,3.95 8.69,7.47 15,5.74 4.48,-1.23 6.7,-4.15 10,-3.72 3.17,0.42 7.2,5.1 13,4.68 5.09,-0.38 8.41,-4.73 12,-4.64 3.25,0.08 6.98,4.29 12,4.29 6.04,0 9.28,-5.52 14,-4.29 2.33,0.61 5.71,3.76 10,4.11 6.94,0.58 10.12,-5.38 15,-4.11 2.56,0.67 6.16,4.23 11,4.15 5.35,-0.09 8.32,-4.14 12,-4.01 3.22,0.11 6.83,3.94 12,3.37 4.8,-0.53 7.75,-4.43 11,-4.45 3.22,-0.03 7.61,4.64 13,4.49 4.93,-0.14 8.7,-4.52 12,-4.49 3.46,0.02 6.61,4.47 12,4.51 5.61,0.04 9.5,-4.72 13,-4.54 3.28,0.17 5.66,4 11,4.68 7.2,0.92 10.18,-4.53 14,-4.63 3.01,-0.08 6.55,3.72 11,4.43 6.23,1 9.92,-4.63 14,-4.5 3.25,0.1 6.22,3.97 11,4.5 6.12,0.68 10.24,-4.63 14,-4.5 3.03,0.09 5.79,3.44 10,4.34 5.44,1.15 10.5,-2.9 15,-5.41 4.61,3.73 8.89,6.39 15,4.11 3.48,-1.3 5.4,-3.9 8,-3.93 3.67,-0.05 6.79,5.52 14,4.59 5.4,-0.69 7.78,-4.6 11,-4.6 2.78,0 4.99,2.95 9,4.18 6.66,2.04 10.86,-1.96 16,-5.35 3.83,3.23 8.6,7.22 14,6.38 4.46,-0.7 7.77,-4.32 11,-4.46 4.16,-0.18 8.11,5.16 14.16,4 5.16,-0.99 7.77,-4.75 10.84,-4.75 2.78,0 4.99,2.95 9,4.18 6.66,2.04 10.86,-1.96 16,-5.35 4.73,3.95 9.5,7.31 16,5.35 3.22,-0.97 5.42,-3.19 8,-3.3 3.49,-0.15 7.2,4.04 13,2.99 5.2,-0.94 7.7,-5.1 12,-3.98 2.07,0.54 5.36,3.31 9,4.06 5.71,1.18 10.58,-3.2 15,-6.12 4.83,4.32 9.22,7.79 16,5.43 3.26,-1.14 5.56,-3.31 8,-3.37 3.59,-0.09 7.34,4.58 13,4.57 5.59,0 8.84,-4.38 12,-4.75 3.74,-0.44 7.49,4.47 13,4.47 5.01,0 8.98,-4.26 12,-4.48 3.64,-0.28 5.67,3.56 11,4.27 6.62,0.89 10.72,-4.03 14,-4.27 4.18,-0.32 6.81,5.2 14,4.28 5.06,-0.66 7.69,-4.17 11,-4.09 2.8,0.07 5.11,2.75 9,3.53 5.8,1.17 10.41,-2.73 15,-5.59 0,0 5,3.53 5,3.53 9.4,5.47 12.66,-0.34 21,-3.53 3.96,4.23 9.11,7.31 15,4.99 3.29,-1.29 5.45,-3.82 8,-3.82 2.77,0 4.96,2.93 9,4.18 7.17,2.22 11.45,-1.69 17,-5.35 4.35,3.33 9.18,7.08 15,5.35 3.86,-1.15 6.17,-4.11 9,-4.26 3.69,-0.19 7.23,4.71 13,4.7 5.73,0 8.56,-4.58 12,-4.65 3.54,-0.07 6.81,4.84 13,4.58 5.47,-0.22 8.32,-4.11 12,-3.93 3.23,0.16 6.24,3.72 12,2.98 5.4,-0.69 7.78,-4.6 11,-4.6 3.72,0 6.79,5.52 14,4.6 5.4,-0.69 7.78,-4.6 11,-4.6 2.78,0 4.99,2.95 9,4.18 6.66,2.04 10.86,-1.96 16,-5.35 3.79,3.38 8.53,7.23 14,6.38 4.46,-0.7 7.77,-4.32 11,-4.46 3.47,-0.15 6.09,3.23 11,3.85 7.24,0.92 10.33,-4.64 14,-4.59 2.6,0.03 4.52,2.63 8,3.93 7.05,2.63 11.52,-1.49 17,-5.11 4.86,4.07 9.37,7.31 16,5.15 z"
     inkscape:connector-curvature="0"
     style="fill:none;stroke:#000000;stroke-width:1" />
</svg>
